<svg width="32" height="32" viewBox="0 0 32 32" fill="none" xmlns="http://www.w3.org/2000/svg">
<path fill-rule="evenodd" clip-rule="evenodd" d="M19.7434 20.5321C18.2306 21.7378 16.314 22.4583 14.2292 22.4583C9.33915 22.4583 5.375 18.4942 5.375 13.6042C5.375 8.71415 9.33915 4.75 14.2292 4.75C19.1192 4.75 23.0833 8.71415 23.0833 13.6042C23.0833 15.6888 22.3629 17.6051 21.1575 19.1178L27.3325 25.2928L25.9183 26.707L19.7434 20.5321ZM21.0833 13.6042C21.0833 17.3896 18.0146 20.4583 14.2292 20.4583C10.4437 20.4583 7.375 17.3896 7.375 13.6042C7.375 9.81872 10.4437 6.75 14.2292 6.75C18.0146 6.75 21.0833 9.81872 21.0833 13.6042Z" fill="#141414"/>
</svg>
