<svg width="24" height="24" viewBox="0 0 24 24" fill="none" xmlns="http://www.w3.org/2000/svg">
<path fill-rule="evenodd" clip-rule="evenodd" d="M16.2501 7.75013C16.2501 10.0974 14.3473 12.0003 12 12.0003C9.6528 12.0003 7.75 10.0974 7.75 7.75013C7.75 5.40285 9.6528 3.5 12 3.5C14.3473 3.5 16.2501 5.40285 16.2501 7.75013ZM14.7501 7.75013C14.7501 9.26902 13.5188 10.5003 12 10.5003C10.4813 10.5003 9.25 9.26902 9.25 7.75013C9.25 6.23124 10.4813 5 12 5C13.5188 5 14.7501 6.23124 14.7501 7.75013Z" fill="#141414"/>
<path fill-rule="evenodd" clip-rule="evenodd" d="M20.2385 19.5017C20.3689 19.986 20.4574 20.4874 20.5 21.0017H3.5C3.54259 20.4874 3.63112 19.986 3.76151 19.5017C4.73714 15.8779 8.05594 13.21 12 13.21C15.9441 13.21 19.2629 15.8779 20.2385 19.5017ZM12 14.71C15.11 14.71 17.7446 16.7205 18.6724 19.5017H5.32757C6.25544 16.7205 8.88997 14.71 12 14.71Z" fill="#141414"/>
</svg>
