<svg width="24" height="24" viewBox="0 0 24 24" fill="none" xmlns="http://www.w3.org/2000/svg">
<path fill-rule="evenodd" clip-rule="evenodd" d="M11.9991 9.67459L10.8236 8.19181C10.2777 7.50318 9.79598 6.91572 9.26357 6.45076C8.73491 5.98908 8.19089 5.67848 7.67228 5.55469C6.84353 5.36754 5.88225 5.67967 5.26677 6.37691C4.72892 7.00611 4.46455 7.97207 4.50374 9.0509C4.53859 9.71357 4.92028 10.6642 5.70066 11.8429C6.45764 12.9862 7.47588 14.1766 8.5338 15.2803C9.58634 16.3785 10.6484 17.3602 11.4719 18.0861C11.6639 18.2554 11.8425 18.4104 12.0044 18.5492C12.8589 17.8138 14.1711 16.637 15.474 15.2768C16.5308 14.1735 17.5476 12.9844 18.3029 11.8422C19.0843 10.6605 19.4636 9.70905 19.4946 9.04745C19.5427 7.97205 19.2742 7.01001 18.7291 6.37432C18.1193 5.67504 17.1606 5.36531 16.3239 5.55513C15.7936 5.6797 15.2629 5.98107 14.7446 6.4419C14.2018 6.92458 13.7123 7.51345 13.1745 8.19181L11.9991 9.67459ZM15.9864 4.09359C17.3854 3.77385 18.9044 4.28955 19.8637 5.39315C20.7332 6.40392 21.0529 7.786 20.993 9.11651C20.798 13.312 12.7675 19.8825 12.0491 20.4703C12.0311 20.4851 12.0176 20.4961 12.0091 20.5032C11.6493 20.2247 3.215 13.4174 3.00514 9.11651C2.95517 7.79631 3.26496 6.40392 4.13438 5.39315C5.09373 4.29987 6.6127 3.77385 8.01176 4.09359C8.8412 4.28955 9.60068 4.75368 10.2502 5.32095C10.5203 5.55682 10.7749 5.8141 11.0189 6.08312C11.3617 6.46111 11.6838 6.86231 11.9991 7.25999C12.3149 6.86152 12.6377 6.46305 12.9813 6.08526C13.2247 5.81766 13.4785 5.56044 13.7479 5.32095C14.3974 4.74337 15.1469 4.28955 15.9864 4.09359Z" fill="#141414"/>
</svg>
